/* XPM */
static char * D:\Work\BigEvilCorporation\Repositories\bigevilcorporationhd\mdstudio\FormBuilderProj\collision_xpm[] = {
"64 64 2 1",
" 	c None",
".	c #000000",
"                                                                ",
"                                                                ",
"                                                                ",
"                                                                ",
"                                                                ",
"                                                                ",
"                                                                ",
"                                .                               ",
"                  ...          ...      .                       ",
"                  ...          ...      ..                      ",
"                   ...         ...     ...                      ",
"                    ..         ...     ...                      ",
"                    ...        ...     ..                       ",
"                     ...       ...    ...                       ",
"                     ...       ...    ...                       ",
"                      ...      ...    ..                        ",
"                      ...      ..    ...                        ",
"                       ..      ..    ..                         ",
"                 ..    ...     ..   ...     ..               ...",
"..              ....    ..     ..   ...    ...              ....",
"...              ....   ...    ..   ..    ...              .... ",
"....              ...   ...    ..  ...   ...               ...  ",
" ....              ...   ..    ..  ...  ...               ...   ",
". ...               ..   ...   ..  ..  ....              ...   .",
".. ...               .    ..   ..  ..  ..                ...  ..",
"..  ...                   ..   ..  ..  ..               ...   ..",
"..  ...............                               ........    ..",
"..   .......................          ....................    ..",
"           .................... .........................       ",
"                        ....... ............                    ",
"                        ...  .. ...  ..                         ",
"                        ...  .. ...  ..                         ",
"        ....            ...  .. ...  ..                 ......  ",
"      .........         ...  .. ... ...             ............",
"    ............        ....... ... ...           ..............",
"   ....       ...       ....... .......          .....        ..",
"  ....  ...    ...          ... ......          ...            .",
" ...  ......   ...          ... ...            ...     ....... .",
" ... ........   ..          ... ...            ...    ......... ",
"...  ...   ...  ...         ... ...           ...    .... ......",
"... ...     ... ...         ... ...           ...   ...      ...",
"..  ..       ... ..         ... ...           ...   ..        ..",
".. ...       ... .........  ... ...           ...   ..         .",
".  ...  ..    .. .............. ...           ...  ...         .",
".  ...  ...   ..  ............. ........      ...  ...   ...   .",
".  ...        ..            ..  .................  ...    ..   .",
"   ...       ...                    .............  ...         .",
"    ..       ...                                   ...        ..",
"    ......  ....                                    ..        ..",
"     ..........                                     ....     ...",
"       .......                                       .......... ",
"                                                      ........  ",
"                                                                ",
"                                                                ",
"                                                                ",
"                                                                ",
"                                                                ",
"                                                                ",
"                                                                ",
"                                                                ",
"                                                                ",
"                                                                ",
"                                                                ",
"                                                                "};
