/* XPM */
static char * loop_16_16_xpm[] = {
"16 16 2 1",
" 	c None",
".	c #000000",
"     ......     ",
"   ...    ...  .",
"  ..        ....",
" ..          ...",
" .          ....",
"..         .....",
".               ",
".               ",
"               .",
"               .",
".....         ..",
"....          . ",
"...          .. ",
". ..        ..  ",
"   ...    ...   ",
"     ......     "};
