/* XPM */
static char * D:\Work\BigEvilCorporation\Repositories\bigevilcorporation\mdstudio\FormBuilderProj\removedupetiles_xpm[] = {
"64 64 2 1",
" 	c None",
".	c #000000",
"                                                                ",
"                                                                ",
"  .                                 .......................     ",
" ...........................................................    ",
" ...........................................................    ",
" ...................................                     ...    ",
"  ...                         ...                        ...    ",
"  ...                         ...                        ...    ",
"  ...            .            ...                        ...    ",
"   ...          ....          ...          ......        ...    ",
"   ...         ......         ...       ...........      ...    ",
"   ...         ......         ...      .............     ...    ",
"   ...        ...  ...        ...      ....    ......    ...    ",
"   ...        ...   ...       ...     ...         ...    ...    ",
"   ...       ....    ...      ...     ...          ...   ...    ",
"   ...      ....      ...     ...    ....          ...   ...    ",
"   ...      ...        ...    ....   ...           ...   ...    ",
"   ...     ...         ...     ...   ...           ...   ...    ",
"   ...    ...           ...    ...   ...           ...   ...    ",
"   ...   ...            ...    ...    ...          ...   ...    ",
"   ...   ...             ...   ...    ...          ...   ...    ",
"   ...  ...               ...  ...    ...          ...   ...    ",
"   ...  ...               ...  ...     ...         ...   ....   ",
"   ...  ...................... ...      ...       ....    ...   ",
"   ...  ...................... ...      .............     ...   ",
"   ...   ....................  ...       ...........      ...   ",
"   ...                         ...         .......        ...   ",
"   ...                         ...                        ...   ",
"   ...                         ...                        ...   ",
"   ...        .......................                     ...   ",
"   ..........................................................   ",
"   ..........................................................   ",
"   ...........                 ....  ........................   ",
"   ...                         .....                    .....   ",
"   ...                         ......                  ......   ",
"   ...                         ... ...                 .......  ",
"   ...                         ...  ...               ...  ...  ",
"   ...          ............   ...  ...              ...   ...  ",
"   ...    ...................  ...   ....     .     ...    ...  ",
"   ...   ....................  ...    ....   ...   ...     ...  ",
"   ...   .......          ...  ...     .... .....  ...     ...  ",
"   ...   ...              ...   ...      ........ ...      ...  ",
"   ...   ...              ...   ...       ...  .....       ...  ",
"   ...   ...              ...   ...       ....  ...        ...  ",
"   ...   ...              ...   ...      ............      ...  ",
"   ...   ...              ...   ...     ...  .........     ...  ",
"   ...   ...              ...   ...     ...   ...  ....    ...  ",
"   ...   ...              ...   ...    ...   .....  ...    ...  ",
"   ...   ...              ...   ...    ...  ... ...  ...   ...  ",
"   ...   ...              ...   ...   ....  ...  ...  ...  ...  ",
"   ...   ...              ...   ...   ...  ..............  ...  ",
"   ...   ...              ...   ...  ..................... ...  ",
"   ...   ...              ...   ... .....................  ...  ",
"   ...   ....................   ... ..........       ....  ...  ",
"   ...    ...................   ...  .. ...           .... ...  ",
"   ...     .................    ...    ...             .......  ",
"   ...                          ...    ...              ......  ",
"   ...                          ...   ...                 ....  ",
"   ...........................................................  ",
"   ...........................................................  ",
"    .........................................................   ",
"                                                                ",
"                                                                ",
"                                                                "};
