/* XPM */
static char * tool_createstamp_xpm[] = {
"32 32 101 2",
"  	c None",
". 	c #8F5903",
"+ 	c #915C07",
"@ 	c #905A04",
"# 	c #925D08",
"$ 	c #915B06",
"% 	c #976516",
"& 	c #C4A878",
"* 	c #CBB58B",
"= 	c #B5945A",
"- 	c #905C07",
"; 	c #905B05",
"> 	c #905C05",
", 	c #9F7126",
"' 	c #ECE4D1",
") 	c #EDE7D7",
"! 	c #E8E1CF",
"~ 	c #E3DBC7",
"{ 	c #CCB995",
"] 	c #905904",
"^ 	c #8F5902",
"/ 	c #DAC9AA",
"( 	c #DED5C0",
"_ 	c #D9CEB8",
": 	c #AC874A",
"< 	c #EAE3D1",
"[ 	c #D4C8B0",
"} 	c #B89B6C",
"| 	c #DDD0B5",
"1 	c #CFC2A8",
"2 	c #AE8E56",
"3 	c #8F5B06",
"4 	c #905B06",
"5 	c #B28F54",
"6 	c #C6B696",
"7 	c #936110",
"8 	c #8E5902",
"9 	c #AA8445",
"0 	c #CBB998",
"a 	c #CDBFA4",
"b 	c #BCA47A",
"c 	c #9A6B20",
"d 	c #8E5903",
"e 	c #8F5904",
"f 	c #8E5801",
"g 	c #A87D3A",
"h 	c #DAC8AB",
"i 	c #B49056",
"j 	c #FFFFFF",
"k 	c #905B07",
"l 	c #8E5901",
"m 	c #915B07",
"n 	c #966311",
"o 	c #D9CAA2",
"p 	c #E6DEBF",
"q 	c #BEA168",
"r 	c #905B04",
"s 	c #DACCA6",
"t 	c #C4AA75",
"u 	c #8D5801",
"v 	c #D8C9A0",
"w 	c #E5DDBD",
"x 	c #E5DCBC",
"y 	c #D0BD8F",
"z 	c #C9B17F",
"A 	c #D9CCA4",
"B 	c #C3A974",
"C 	c #B59356",
"D 	c #E2DABC",
"E 	c #8D5701",
"F 	c #C6AF7F",
"G 	c #EEE8D5",
"H 	c #8C5701",
"I 	c #CFC297",
"J 	c #898164",
"K 	c #57513F",
"L 	c #585341",
"M 	c #ACA17E",
"N 	c #D9CEAC",
"O 	c #8B5601",
"P 	c #C6AF7E",
"Q 	c #CDC096",
"R 	c #797158",
"S 	c #9D9372",
"T 	c #8B5701",
"U 	c #C5AD7B",
"V 	c #CFC197",
"W 	c #C7B991",
"X 	c #6A634E",
"Y 	c #8A8165",
"Z 	c #EDE7D4",
"` 	c #865401",
" .	c #9C6C20",
"..	c #E6DDC4",
"+.	c #CFC196",
"@.	c #CABC92",
"#.	c #B9AD86",
"$.	c #D9CDA9",
"%.	c #D8CAA8",
"&.	c #8D5A07",
"*.	c #845303",
"                                                                ",
"                                                                ",
"                                                                ",
"                                                                ",
"                          . + @ #                               ",
"                        $ % & * = - ;                           ",
"                      > , ' ) ! ~ { ]                           ",
"                      ^ / ) ! ~ ( _ : +                         ",
"                      ^ < ! ~ ( _ [ } @                         ",
"                      ^ | ~ ( _ [ 1 2 3                         ",
"                      4 5 ( _ [ 1 6 7 .                         ",
"                        8 9 0 a b c ;                           ",
"                          d ^ ^ ^ e                             ",
"                          f g h ^                               ",
"                          f i j ^ .                             ",
"              k ^ ^ ^ ^ ^ ^ i j ^ ^ ^ ^ ^ ^ ^ l                 ",
"            m n o p p p p q ^ ^ r s p p p p t . l               ",
"          u n v w w w w w x y z A w w w w w w B ^               ",
"          f C D D D D D D D D D D D D D D D D D ^               ",
"          E F G G G G G G G G G G G G G G G G G ^               ",
"          H F G I I I I J K K K K L M I I I N G ^               ",
"          O P G I I I I Q R K K K S I I I I N G ^               ",
"          T U G V V V V V W X K Y V V V V V N Z ^               ",
"          `  ...+.+.+.+.+.+.@.#.+.+.+.+.+.+.$.%.8               ",
"            &.^ ^ ^ ^ ^ ^ ^ ^ ^ ^ ^ ^ ^ ^ ^ ^ 8 *.              ",
"                                                                ",
"                                                                ",
"                                                                ",
"                                                                ",
"                                                                ",
"                                                                ",
"                                                                "};
