/* XPM */
static char * tool_dropper_xpm[] = {
"32 32 132 2",
"  	c None",
". 	c #2E3336",
"+ 	c #2D3336",
"@ 	c #2E3436",
"# 	c #2C3436",
"$ 	c #393F45",
"% 	c #68778A",
"& 	c #8593A6",
"* 	c #6E7A88",
"= 	c #33393C",
"- 	c #2E3438",
"; 	c #617591",
"> 	c #667C9B",
", 	c #50698D",
"' 	c #8B9CB3",
") 	c #798595",
"! 	c #2C3336",
"~ 	c #2F3C4B",
"{ 	c #5A7293",
"] 	c #284773",
"^ 	c #183968",
"/ 	c #3D5980",
"( 	c #95A4B8",
"_ 	c #32383A",
": 	c #2D3436",
"< 	c #2C3B4A",
"[ 	c #395377",
"} 	c #4B6489",
"| 	c #1E3E6C",
"1 	c #496388",
"2 	c #8192AA",
"3 	c #303638",
"4 	c #32373A",
"5 	c #2E3539",
"6 	c #203A5D",
"7 	c #2E4C76",
"8 	c #2F4C77",
"9 	c #576F91",
"0 	c #697E9D",
"a 	c #4C5A6B",
"b 	c #2D3437",
"c 	c #888A85",
"d 	c #545959",
"e 	c #213A5E",
"f 	c #3C5880",
"g 	c #354A67",
"h 	c #33404D",
"i 	c #2D3335",
"j 	c #888B86",
"k 	c #ADAFAB",
"l 	c #F9FAF9",
"m 	c #636869",
"n 	c #2A4161",
"o 	c #AEB0AC",
"p 	c #FCFDFC",
"q 	c #F1F2EF",
"r 	c #D1D5CD",
"s 	c #4F5454",
"t 	c #2E3538",
"u 	c #2B343B",
"v 	c #2D3435",
"w 	c #D3D7CF",
"x 	c #9EA29B",
"y 	c #383D3E",
"z 	c #AEB1AC",
"A 	c #FDFDFD",
"B 	c #898B86",
"C 	c #879CB4",
"D 	c #6E9BCC",
"E 	c #5E8BBF",
"F 	c #406EA7",
"G 	c #7C8E9D",
"H 	c #879EB7",
"I 	c #709DCE",
"J 	c #5D8BC1",
"K 	c #3766A5",
"L 	c #768B9F",
"M 	c #879FB6",
"N 	c #5C8BC0",
"O 	c #888B85",
"P 	c #879FB7",
"Q 	c #5A89BE",
"R 	c #3766A6",
"S 	c #879FB8",
"T 	c #719ECE",
"U 	c #5A88BF",
"V 	c #3667A5",
"W 	c #778FA8",
"X 	c #5989BE",
"Y 	c #758A9E",
"Z 	c #898A86",
"` 	c #828B90",
" .	c #5888BE",
"..	c #3568A4",
"+.	c #768B9E",
"@.	c #828D94",
"#.	c #5987BE",
"$.	c #768A9E",
"%.	c #888985",
"&.	c #868986",
"*.	c #7D8891",
"=.	c #7F888D",
"-.	c #465E7C",
";.	c #737571",
">.	c #747572",
",.	c #1E4882",
"'.	c #204A87",
").	c #1A3E70",
"!.	c #25508E",
"~.	c #1F4984",
"{.	c #2B5897",
"].	c #3363A2",
"^.	c #214C88",
"/.	c #1C427A",
"(.	c #1D447D",
"_.	c #3A6197",
":.	c #83A1C7",
"<.	c #557EB3",
"[.	c #2D5C9A",
"}.	c #204987",
"|.	c #86A1C5",
"1.	c #B7C9DF",
"2.	c #A1B8D5",
"3.	c #3465A4",
"4.	c #1A3D71",
"5.	c #204883",
"6.	c #5073A3",
"7.	c #A5B9D4",
"8.	c #6D8FBC",
"9.	c #2A5897",
"0.	c #204A86",
"a.	c #204986",
"                                                                ",
"                                                                ",
"                                            . + @ +             ",
"                                          # $ % & * =           ",
"                                          - ; > , ' ) @         ",
"                                        ! ~ { ] ^ / ( _         ",
"                                    : @ < [ } | ^ 1 2 3         ",
"                                    4 5 6 7 8 / 9 0 a b         ",
"                                    c d 5 e 7 f g h i           ",
"                                  j k l m 5 6 n @ !             ",
"                                j o p q r s t u v               ",
"                              j o p q w x c y @                 ",
"                            j z A q w x B                       ",
"                          j C D E F G B                         ",
"                        j H I J K L c                           ",
"                      B M I N K L c                             ",
"                    O P I Q R L c                               ",
"                  O S T U V L c                                 ",
"                c W T X V Y Z                                   ",
"                ` T  ...+.Z                                     ",
"                @.#...$.%.                                      ",
"                &.*.=.%.                                        ",
"                -.;.>.                                          ",
"              ,.'.                                              ",
"            ).'.!.~.                                            ",
"            '.{.].^./.                                          ",
"          (._.:.<.[.}.                                          ",
"          }.|.1.2.3.^.4.                                        ",
"          5.6.7.8.9.0.                                          ",
"            ~.'.'.a.                                            ",
"                                                                ",
"                                                                "};
