/* XPM */
static char * tool_clone_xpm[] = {
"32 32 2 1",
" 	c None",
".	c #000000",
"..                              ",
"..................              ",
".......    .    ..              ",
".......    .    ..              ",
".......    .    ..              ",
"............... .               ",
"..   ..    ......               ",
"..   ..    ......               ",
".     .    ......               ",
".     .    ......               ",
".......    ......               ",
".................               ",
".......    .    .               ",
".......    . .....              ",
".......    . ...................",
"......     . .......     .    ..",
".......    . .......     .    ..",
" ...................     .    ..",
"             .......     ..   ..",
"              .........  ..   . ",
"              ................. ",
"             ..    .     ...... ",
"             ..    .      ..... ",
"              .    .      ..... ",
"              .    .      ..... ",
"             ....  .      ..... ",
"             .................. ",
"             .......      .   . ",
"             .......      .   . ",
"             .......      .   . ",
"              ........   ...  ..",
"                ............... "};
