/* XPM */
static char * tool_move_xpm[] = {
"32 32 125 2",
"  	c None",
". 	c #1F4A87",
"+ 	c #204A87",
"@ 	c #1F4986",
"# 	c #1F4987",
"$ 	c #224C88",
"% 	c #5483BC",
"& 	c #204A86",
"* 	c #214A87",
"= 	c #6494CB",
"- 	c #72A3D9",
"; 	c #4877AF",
"> 	c #204986",
", 	c #4C7AB4",
"' 	c #6393CB",
") 	c #6293CA",
"! 	c #6394CB",
"~ 	c #305B97",
"{ 	c #3966A0",
"] 	c #5687BF",
"^ 	c #5383BC",
"/ 	c #5282BB",
"( 	c #5484BC",
"_ 	c #5887BE",
": 	c #244F8B",
"< 	c #204987",
"[ 	c #25518D",
"} 	c #4C7CB5",
"| 	c #26518D",
"1 	c #507FB7",
"2 	c #1F4A86",
"3 	c #27528E",
"4 	c #5786BC",
"5 	c #3F6CA5",
"6 	c #5E8CC1",
"7 	c #26508C",
"8 	c #2A5591",
"9 	c #5B8BC1",
"0 	c #6798CF",
"a 	c #295390",
"b 	c #6593C6",
"c 	c #275390",
"d 	c #6D9CD4",
"e 	c #406DA6",
"f 	c #224C89",
"g 	c #6E9ED5",
"h 	c #77A9DE",
"i 	c #6596CD",
"j 	c #26528E",
"k 	c #26518E",
"l 	c #3D68A0",
"m 	c #6C99CB",
"n 	c #295490",
"o 	c #36639D",
"p 	c #6B9CD3",
"q 	c #7DAFE4",
"r 	c #5380B9",
"s 	c #5483BB",
"t 	c #7FB1E6",
"u 	c #76A8DE",
"v 	c #6495CC",
"w 	c #5382BA",
"x 	c #5B8ABF",
"y 	c #6391C5",
"z 	c #6B99CA",
"A 	c #709DCE",
"B 	c #6896C8",
"C 	c #608FC3",
"D 	c #5887BD",
"E 	c #5080B8",
"F 	c #5888C0",
"G 	c #6A9BD2",
"H 	c #7CAEE4",
"I 	c #7DB1E4",
"J 	c #2C5894",
"K 	c #4876AF",
"L 	c #77A9DF",
"M 	c #6A97C9",
"N 	c #275290",
"O 	c #6B9DD3",
"P 	c #79AAE0",
"Q 	c #2C5692",
"R 	c #335E99",
"S 	c #6796CF",
"T 	c #6391C4",
"U 	c #6494CC",
"V 	c #244E8B",
"W 	c #244F8C",
"X 	c #5B8AC0",
"Y 	c #214B88",
"Z 	c #204A88",
"` 	c #5484BB",
" .	c #1F4985",
"..	c #4D7DB6",
"+.	c #1F4783",
"@.	c #1F4885",
"#.	c #1E4783",
"$.	c #234C88",
"%.	c #244F8A",
"&.	c #2F5B94",
"*.	c #254F8A",
"=.	c #204B86",
"-.	c #1F4883",
";.	c #204885",
">.	c #254F89",
",.	c #5A8AC4",
"'.	c #5889C1",
").	c #5788C0",
"!.	c #5989C1",
"~.	c #5485BC",
"{.	c #204A85",
"].	c #1E457D",
"^.	c #335D94",
"/.	c #6899D0",
"(.	c #6597CE",
"_.	c #214C86",
":.	c #1E4782",
"<.	c #4671A6",
"[.	c #77A7DD",
"}.	c #29528C",
"|.	c #1F4884",
"1.	c #1B3F74",
"2.	c #2A538B",
"3.	c #1C4279",
"4.	c #1E4781",
"                                                                ",
"                                                                ",
"                                                                ",
"                            . + @                               ",
"                          # $ % .                               ",
"                        & * = - ; &                             ",
"                        > , ' ) ! ~ &                           ",
"                      > { ] ^ / ( _ : &                         ",
"                      < + + [ } + + + .                         ",
"                          < [ } + <                             ",
"                          @ | 1 +                               ",
"              2 +         @ 3 4 +           & >                 ",
"          & . 5 +         @ 3 6 +         & 7 8 2               ",
"        # * 9 0 + < @ @ @ . a b + < @ @ @ . c d e & @           ",
"      > f g h i j [ [ k 3 a l m n a 3 | [ [ o p q r 2           ",
"      & s t u v / } } w x y z A B C D E } } F G H I J &         ",
"      @ . K L i + + + + + + n M + + + + + + N O P Q 2           ",
"          & R S + <       < a T + <       < c U V .             ",
"            & W +         @ 3 X +         # Y Z 2               ",
"              & <         @ j ` +           @  .                ",
"                           .7 ..+                               ",
"                        +.2 : } + @.#.                          ",
"                      2 $.%.&.} %.*.=.-.                        ",
"                      ;.>.,.'.).!.~.{.].                        ",
"                        @ ^./.0 (._.:.                          ",
"                          + <.[.}.|.                            ",
"                          1.@ 2.@                               ",
"                            3.4.                                ",
"                                                                ",
"                                                                ",
"                                                                ",
"                                                                "};
