/* XPM */
static char * tool_paintcolwall_xpm[] = {
"32 32 3 1",
" 	c None",
".	c #000000",
"+	c #C1C1C1",
"...+..........................+.",
"...+..........................+.",
"...+..........................+.",
"...+..........................+.",
"++++++++++++++++++++++++++++++++",
"...............+................",
"...............+................",
"...............+................",
"...............+................",
"...............+................",
"...............+................",
"...............+................",
"++++++++++++++++++++++++++++++++",
"...+..........................+.",
"...+..........................+.",
"...+..........................+.",
"...+..........................+.",
"...+..........................+.",
"...+..........................+.",
"...+..........................+.",
"++++++++++++++++++++++++++++++++",
"...............+................",
"...............+................",
"...............+................",
"...............+................",
"...............+................",
"...............+................",
"...............+................",
"++++++++++++++++++++++++++++++++",
"...+..........................+.",
"...+..........................+.",
"...+..........................+."};
