/* XPM */
static char * tool_rectangle_xpm[] = {
"32 32 96 2",
"  	c None",
". 	c #000000",
"+ 	c #292928",
"@ 	c #BABDB6",
"# 	c #797A75",
"$ 	c #BABDB5",
"% 	c #C3C6C0",
"& 	c #FFFFFF",
"* 	c #E1E2E0",
"= 	c #343634",
"- 	c #676867",
"; 	c #E2E4E1",
"> 	c #E2E3E0",
", 	c #E1E2DF",
"' 	c #E0E1DE",
") 	c #DFE1DD",
"! 	c #DFE0DD",
"~ 	c #DEDFDC",
"{ 	c #DDDFDB",
"] 	c #DDDEDB",
"^ 	c #DCDDDA",
"/ 	c #F3F4F2",
"( 	c #BBBBBB",
"_ 	c #D3D5D0",
": 	c #D2D4CF",
"< 	c #D1D3CE",
"[ 	c #D0D2CD",
"} 	c #CFD1CC",
"| 	c #CED0CB",
"1 	c #CDCFCA",
"2 	c #CCCEC9",
"3 	c #CBCDC8",
"4 	c #CACCC7",
"5 	c #C9CBC6",
"6 	c #EDEEEC",
"7 	c #393939",
"8 	c #C8CAC5",
"9 	c #A4A4A4",
"0 	c #7C7E7A",
"a 	c #9A9B97",
"b 	c #EDEDEC",
"c 	c #CFD0CE",
"d 	c #C7C9C4",
"e 	c #ECEDEB",
"f 	c #C2C5BF",
"g 	c #333533",
"h 	c #666866",
"i 	c #C6C8C3",
"j 	c #B9B9B9",
"k 	c #323432",
"l 	c #646664",
"m 	c #B7B7B7",
"n 	c #292927",
"o 	c #B5B8B1",
"p 	c #BFC1BB",
"q 	c #C5C7C2",
"r 	c #DBDDDA",
"s 	c #363636",
"t 	c #ECECEB",
"u 	c #9E9E9E",
"v 	c #737471",
"w 	c #91928E",
"x 	c #EFF0EE",
"y 	c #EFEFEE",
"z 	c #EEEFED",
"A 	c #EEEEED",
"B 	c #F9F9F8",
"C 	c #C5C6C4",
"D 	c #747570",
"E 	c #717370",
"F 	c #878A86",
"G 	c #D4D5D3",
"H 	c #979797",
"I 	c #BEBFBD",
"J 	c #BCBDBB",
"K 	c #949494",
"L 	c #CCCDCB",
"M 	c #A7A7A7",
"N 	c #A6A6A6",
"O 	c #CBCDCA",
"P 	c #929292",
"Q 	c #B9BBB8",
"R 	c #939393",
"S 	c #A8A8A8",
"T 	c #A9A9A9",
"U 	c #C2C3C1",
"V 	c #AEB0AC",
"W 	c #272725",
"X 	c #6F706B",
"Y 	c #6E6F6A",
"Z 	c #242422",
"` 	c #6C6D68",
" .	c #6D6E69",
"..	c #242423",
"+.	c #71726D",
"@.	c #72746F",
"                                                                ",
"                                                                ",
"                                                                ",
"                                                                ",
"                                                                ",
"                                                                ",
"                                                                ",
"          . + @ . # # . @ + + @ . # # . @ + + @ . # # .         ",
"          $ % & & & & & & & & & & & & & & & & & & & * @         ",
"          = - & ; > , , , ' ' ) ) ! ~ ~ { { ] ^ ^ / ( +         ",
"          = - & _ _ : < < [ } } | | 1 2 2 3 4 4 5 6 ( +         ",
"          $ % & _ : : < [ [ } | | 1 1 2 3 3 4 5 5 6 * @         ",
"          . 7 & : : < [ [ } } | 1 1 2 3 3 4 4 5 8 6 9 .         ",
"          0 a & : < < [ } } | | 1 2 2 3 4 4 5 5 8 b c #         ",
"          0 a & < < [ [ } | | 1 2 2 3 3 4 5 5 8 d b c #         ",
"          . 7 & < [ [ } } | 1 1 2 3 3 4 4 5 8 8 d e 9 .         ",
"          $ f & < [ } } | 1 1 2 2 3 4 4 5 8 8 d d e * @         ",
"          g h & [ [ } | | 1 2 2 3 3 4 5 5 8 d d i e j +         ",
"          k l & [ } | | 1 1 2 3 3 4 5 5 8 8 d i i e m n         ",
"          o p & } } | 1 1 2 2 3 4 4 5 8 8 d d i q e r @         ",
"          . s & } | | 1 2 2 3 4 4 5 5 8 d d i i q t u .         ",
"          v w & x x y y z z z A 6 6 6 6 b e e e t B C D         ",
"          E F G H I J K L M N O P Q Q R O S T c H U V D         ",
"          . W @ . X Y . @ Z Z @ . `  .. @ ....@ . +.@..         ",
"                                                                ",
"                                                                ",
"                                                                ",
"                                                                ",
"                                                                ",
"                                                                ",
"                                                                ",
"                                                                "};
