/* XPM */
static char * tool_select_xpm[] = {
"32 32 212 2",
"  	c None",
". 	c #98621F",
"+ 	c #C09C73",
"@ 	c #915610",
"# 	c #B78D61",
"$ 	c #E7D4CA",
"% 	c #8C4D06",
"& 	c #8A4A01",
"* 	c #B58A5D",
"= 	c #E4CFC3",
"- 	c #E7D4C9",
"; 	c #E9D5CC",
"> 	c #EAD6CD",
", 	c #894B03",
"' 	c #8B4C04",
") 	c #945817",
"! 	c #AC7D4B",
"~ 	c #D4B8A0",
"{ 	c #EBD9D0",
"] 	c #E0C9BB",
"^ 	c #E4CDC1",
"/ 	c #E9D7CD",
"( 	c #E9D5CD",
"_ 	c #E8D5CD",
": 	c #DEC6B7",
"< 	c #D9BDAD",
"[ 	c #8A4B04",
"} 	c #CAA989",
"| 	c #ECDCD3",
"1 	c #EFE1DA",
"2 	c #EEDED7",
"3 	c #ECDBD3",
"4 	c #EAD8CF",
"5 	c #EAD7CE",
"6 	c #E2CABF",
"7 	c #DDC3B4",
"8 	c #E3CBBE",
"9 	c #E0C7B8",
"0 	c #DBBEAE",
"a 	c #D9BDAC",
"b 	c #B89465",
"c 	c #894801",
"d 	c #D3B99F",
"e 	c #F3E8E3",
"f 	c #F5EDE8",
"g 	c #F1E4DF",
"h 	c #EDDDD6",
"i 	c #ECDAD2",
"j 	c #E1C8BB",
"k 	c #DABDAC",
"l 	c #DBBFAE",
"m 	c #AF824E",
"n 	c #8A4B02",
"o 	c #CBAC8D",
"p 	c #E0C8BD",
"q 	c #C9A38F",
"r 	c #EFE1DB",
"s 	c #F1E5DF",
"t 	c #F1E3DC",
"u 	c #EBDAD1",
"v 	c #E9D7CE",
"w 	c #DBC0B0",
"x 	c #C29C7A",
"y 	c #90540E",
"z 	c #8B4B04",
"A 	c #BE9870",
"B 	c #DBBFB2",
"C 	c #B8866B",
"D 	c #DABEB1",
"E 	c #F1E4DD",
"F 	c #F6EEEA",
"G 	c #F2E6E1",
"H 	c #EBDBD1",
"I 	c #E0C8BA",
"J 	c #955A19",
"K 	c #8C4D07",
"L 	c #A4723A",
"M 	c #DFC7BA",
"N 	c #B9866C",
"O 	c #E2C9BE",
"P 	c #D7B9AB",
"Q 	c #C59B84",
"R 	c #ECDBD2",
"S 	c #8C4C05",
"T 	c #8E520C",
"U 	c #C29C78",
"V 	c #B9876D",
"W 	c #DFC6BA",
"X 	c #D1AF9E",
"Y 	c #BA896F",
"Z 	c #DFC7BB",
"` 	c #D1AF9F",
" .	c #EEDDD5",
"..	c #E2CBBD",
"+.	c #8E510C",
"@.	c #BD9471",
"#.	c #CFAC9A",
"$.	c #D6B8A7",
"%.	c #BB8A70",
"&.	c #E5D0C6",
"*.	c #D1AE9D",
"=.	c #B8856B",
"-.	c #E1CABE",
";.	c #F2E7E2",
">.	c #E0C7B9",
",.	c #8C4E08",
"'.	c #B2845C",
").	c #E5CFC5",
"!.	c #B9896F",
"~.	c #E3CEC3",
"{.	c #D4B5A4",
"].	c #B78469",
"^.	c #D3B2A1",
"/.	c #F5ECE7",
"(.	c #F3E8E2",
"_.	c #DEC3B4",
":.	c #915612",
"<.	c #D5B6A6",
"[.	c #D4B6A5",
"}.	c #B7846A",
"|.	c #C79E88",
"1.	c #F1E5E0",
"2.	c #F5EDEA",
"3.	c #CDAE8C",
"4.	c #BB9664",
"5.	c #E1CBBA",
"6.	c #DBBFAF",
"7.	c #8B4D04",
"8.	c #8A4B03",
"9.	c #C39C7E",
"0.	c #F0E1DB",
"a.	c #CDA794",
"b.	c #BD8E76",
"c.	c #EADAD2",
"d.	c #F0E3DC",
"e.	c #B68F59",
"f.	c #8F5902",
"g.	c #CEB08F",
"h.	c #E8D3C8",
"i.	c #DABDAB",
"j.	c #824703",
"k.	c #ECDDD2",
"l.	c #C49981",
"m.	c #E2CBC0",
"n.	c #F3E9E5",
"o.	c #B48C54",
"p.	c #905A04",
"q.	c #DEC6B3",
"r.	c #E1C8BA",
"s.	c #C9A588",
"t.	c #854905",
"u.	c #8B4D06",
"v.	c #B68D61",
"w.	c #D9BCAF",
"x.	c #F4EAE5",
"y.	c #F6EDE8",
"z.	c #C5A47C",
"A.	c #CAAC88",
"B.	c #C9A983",
"C.	c #C2A075",
"D.	c #CEAF8E",
"E.	c #E2CABE",
"F.	c #D8B9A6",
"G.	c #4D2800",
"H.	c #713D00",
"I.	c #8F530F",
"J.	c #EEE0D9",
"K.	c #BE8D68",
"L.	c #B97A56",
"M.	c #E8D2C9",
"N.	c #E6D0C6",
"O.	c #9C6326",
"P.	c #683701",
"Q.	c #854A07",
"R.	c #BE9971",
"S.	c #EFE3DB",
"T.	c #CFB093",
"U.	c #BE8162",
"V.	c #BC7F5D",
"W.	c #E1C6B8",
"X.	c #DCC1B0",
"Y.	c #DABCAA",
"Z.	c #A26E37",
"`.	c #7E4504",
" +	c #B18657",
".+	c #F3E7E2",
"++	c #B78C62",
"@+	c #8C4C06",
"#+	c #945A1A",
"$+	c #9A6125",
"%+	c #965E1E",
"&+	c #925715",
"*+	c #8A4A02",
"=+	c #804605",
"-+	c #8A4D09",
";+	c #AC7E4C",
">+	c #D6BDA5",
",+	c #673700",
"'+	c #603400",
")+	c #6D3A00",
"!+	c #723C01",
"~+	c #733C01",
"{+	c #743E01",
"]+	c #6E3B00",
"^+	c #8B4F09",
"/+	c #BA926A",
"(+	c #EDDFD4",
"_+	c #D8BDA6",
":+	c #905612",
"<+	c #7F4605",
"[+	c #894A02",
"}+	c #854906",
"                                                                ",
"                                                                ",
"                                                                ",
"                                                                ",
"                                                                ",
"                                                                ",
"                              . +                               ",
"                            @ # $                               ",
"                        % & * = - ; >                           ",
"                , ' & ) ! ~ { > ] ^ / ( _   : <                 ",
"              [ % } | 1 2 3 4 5 5 6 7 8 9 0 a b                 ",
"            c ' d e f g h i 5 5 5 5 j k k l m                   ",
"            n o p q r s t u 5 5 5 5 v w k x y                   ",
"          z A B C D E F G H 5 5 5 5 5 I k J                     ",
"        K L M N O P Q i G F R 5 5 5 5 8 k S                     ",
"        T U V W X Y Z ` I  .5 5 5 5 5 ..k S                     ",
"        +.@.#.$.%.&.*.=.-.;.5 5 5 5 5 >.k %                     ",
"        ,.'.).!.~.{.].^./.(.5 5 5 5 5 _.k S                     ",
"          :.<.[.6 }.|.1.2.i 5 3.4.5.5 6.k 7.                    ",
"          8.9.0.a.b.c.F d.> e.f.f.g.h.k i.&                     ",
"          j.:.k.l.m.f n.5 o.f.f.p.q.r.k s.t.                    ",
"            u.v.w.x.y.i z.A.B.C.D.E.k F.+.G.                    ",
"            H.I.e F J.K.L.M.5 N._.k k O.P.                      ",
"            Q.R.F S.T.U.V.W._.6.X.Y.Z.`.                        ",
"          u. +f .+++& @+#+$+$+%+&+*+=+                          ",
"        -+;+y.x.>+*+,+'+)+!+~+{+]+                              ",
"        ^+/+(+_+:+<+                                            ",
"          [+& & }+                                              ",
"                                                                ",
"                                                                ",
"                                                                ",
"                                                                "};
