/* XPM */
static char * tool_flipx_xpm[] = {
"32 32 2 1",
" 	c None",
".	c #000000",
"                                ",
"                                ",
"                                ",
"                                ",
"                                ",
"                                ",
"                                ",
"         .         .            ",
"        ..         ..           ",
"       ...         ...          ",
"      ....         ....         ",
"     ......        ......       ",
"    .......        .......      ",
"  .........        .........    ",
" ..............   ...........   ",
"............................... ",
"  ..............................",
"   ............................ ",
"    .........................   ",
"     ......        .........    ",
"      .....        ........     ",
"       ....        ......       ",
"        ...        .....        ",
"         ..        ....         ",
"         ..        ..           ",
"          .                     ",
"                                ",
"                                ",
"                                ",
"                                ",
"                                ",
"                                "};
