/* XPM */
static char * tool_animate_xpm[] = {
"32 32 72 1",
" 	c None",
".	c #555753",
"+	c #DDDDDC",
"@	c #FFFFFF",
"#	c #DDDDDD",
"$	c #E0E0E0",
"%	c #DFDFDE",
"&	c #ABACAB",
"*	c #868885",
"=	c #9D8E78",
"-	c #AEA965",
";	c #A59C55",
">	c #B7C92A",
",	c #DCDDDD",
"'	c #DBDBDB",
")	c #D9D9DA",
"!	c #D8D8D8",
"~	c #D6D7D7",
"{	c #D5D5D5",
"]	c #D4D3D3",
"^	c #AF997A",
"/	c #B6AC64",
"(	c #B19D80",
"_	c #AD9C82",
":	c #9F8F76",
"<	c #746552",
"[	c #B1A085",
"}	c #B0A085",
"|	c #B2A288",
"1	c #BF9F75",
"2	c #C2A377",
"3	c #B3A960",
"4	c #AD9C80",
"5	c #BBA684",
"6	c #44392C",
"7	c #AB9574",
"8	c #B7A385",
"9	c #B19E83",
"0	c #CDA46D",
"a	c #B57F57",
"b	c #AA987E",
"c	c #A9977C",
"d	c #4E4537",
"e	c #4D4334",
"f	c #514636",
"g	c #5B4F3D",
"h	c #9F8C72",
"i	c #B5A184",
"j	c #AF9D81",
"k	c #AA916D",
"l	c #76664F",
"m	c #494033",
"n	c #AE9878",
"o	c #C2A376",
"p	c #B79F7B",
"q	c #C7A979",
"r	c #B7996E",
"s	c #3E3629",
"t	c #B09368",
"u	c #D1B180",
"v	c #CDAC7C",
"w	c #EAEAEA",
"x	c #E9E9E9",
"y	c #E7E7E7",
"z	c #A36E52",
"A	c #904E3B",
"B	c #8C4838",
"C	c #83352B",
"D	c #873D30",
"E	c #8C4636",
"F	c #E5E5E5",
"G	c #3A3C39",
"                                ",
"                                ",
"                                ",
"                                ",
"                                ",
"      ..............            ",
"     .+@@@@@@@@@@@@+.           ",
"     .@############@.           ",
"     .@#$%&..............       ",
"     .@*...+@@@@@@@@@@@@+.      ",
"     .@.=-.@############@.      ",
"     .@.;>.@#$%#,')!~{]#@.      ",
"     .@.^/.@*..........*@.      ",
"     .@.^(.@.=-__:<[[}|.@.      ",
"     .@.12.@.;>34567789.@.      ",
"     .@.0a.@.^/bcdefghi.@.      ",
"     .@*...@.^(jjklmn8i.@.      ",
"     .@###.@.12opqrstuv.@.      ",
"     .@wxy.@.0azABCCCDE.@.      ",
"     .+@@@.@*..........*@.      ",
"      .....@############@.      ",
"          .@wxyxyFxyxyFF@.      ",
"          .+@@@@@@@@@@@@+.      ",
"          G..............       ",
"                                ",
"                                ",
"                                ",
"                                ",
"                                ",
"                                ",
"                                ",
"                                "};
