/* XPM */
static char * tool_paint_xpm[] = {
"32 32 180 2",
"  	c None",
". 	c #6F3D08",
"+ 	c #B86814",
"@ 	c #724007",
"# 	c #6E3D08",
"$ 	c #D08738",
"% 	c #AA6A28",
"& 	c #6E3E0B",
"* 	c #CF8B44",
"= 	c #DC9B57",
"- 	c #76440E",
"; 	c #6E3F0E",
"> 	c #C78946",
", 	c #DC8427",
"' 	c #B47C42",
") 	c #683807",
"! 	c #714514",
"~ 	c #BF8548",
"{ 	c #E5831D",
"] 	c #BA752C",
"^ 	c #815425",
"/ 	c #B47E47",
"( 	c #E48119",
"_ 	c #BC680F",
": 	c #A37442",
"< 	c #673A09",
"[ 	c #A87846",
"} 	c #D57918",
"| 	c #C76E10",
"1 	c #995B18",
"2 	c #805C36",
"3 	c #693B07",
"4 	c #9C7244",
"5 	c #C67017",
"6 	c #D27411",
"7 	c #9F580D",
"8 	c #896339",
"9 	c #744715",
"0 	c #916B43",
"a 	c #B76815",
"b 	c #DE7A12",
"c 	c #AB5E0E",
"d 	c #7C4912",
"e 	c #8E673C",
"f 	c #6E3E07",
"g 	c #6D400F",
"h 	c #916B44",
"i 	c #A86015",
"j 	c #E98113",
"k 	c #B6640F",
"l 	c #83480A",
"m 	c #856139",
"n 	c #7C4C17",
"o 	c #6A3C0A",
"p 	c #906A42",
"q 	c #9B5B17",
"r 	c #DC7912",
"s 	c #C16B10",
"t 	c #8E4F0B",
"u 	c #663F15",
"v 	c #9D6D3A",
"w 	c #723F07",
"x 	c #673907",
"y 	c #8B653C",
"z 	c #8F571D",
"A 	c #CC7111",
"B 	c #CD7111",
"C 	c #9A550C",
"D 	c #663908",
"E 	c #9E7141",
"F 	c #7F4A13",
"G 	c #82582D",
"H 	c #895B2B",
"I 	c #BD680F",
"J 	c #D87711",
"K 	c #A55B0D",
"L 	c #723F09",
"M 	c #885A28",
"N 	c #A1682D",
"O 	c #754007",
"P 	c #8F8F8B",
"Q 	c #908D84",
"R 	c #928E84",
"S 	c #A37744",
"T 	c #E27D13",
"U 	c #B0610E",
"V 	c #7D450A",
"W 	c #724210",
"X 	c #B17D43",
"Y 	c #784309",
"Z 	c #959692",
"` 	c #C3C3C3",
" .	c #D1D1D1",
"..	c #BABAB6",
"+.	c #988D7C",
"@.	c #88521A",
"#.	c #633709",
"$.	c #AB7942",
"%.	c #8E5516",
"&.	c #AEAEAD",
"*.	c #DBDBDB",
"=.	c #EAEAEA",
"-.	c #D4D4D4",
";.	c #B6B6B6",
">.	c #8B877F",
",.	c #997144",
"'.	c #A46724",
").	c #764007",
"!.	c #92938E",
"~.	c #C7C7C7",
"{.	c #F3F3F3",
"].	c #DEDEDE",
"^.	c #AAAAAA",
"/.	c #B0B0AF",
"(.	c #928C81",
"_.	c #76420B",
":.	c #A8A9A7",
"<.	c #E1E1E1",
"[.	c #EEEEEE",
"}.	c #CBCBCB",
"|.	c #B3B3B3",
"1.	c #ACACAC",
"2.	c #BDBDBD",
"3.	c #949590",
"4.	c #90918D",
"5.	c #CACACA",
"6.	c #F5F5F5",
"7.	c #D5D5D5",
"8.	c #BBBBBB",
"9.	c #A4A4A4",
"0.	c #B6B7B6",
"a.	c #959691",
"b.	c #A1A39F",
"c.	c #E6E6E6",
"d.	c #E9E9E9",
"e.	c #AFAFAE",
"f.	c #676765",
"g.	c #A0A09F",
"h.	c #CCCCCC",
"i.	c #B2B2B2",
"j.	c #A6A7A6",
"k.	c #90928E",
"l.	c #353535",
"m.	c #424242",
"n.	c #404040",
"o.	c #303030",
"p.	c #282828",
"q.	c #787878",
"r.	c #8F908C",
"s.	c #2A2A2A",
"t.	c #626262",
"u.	c #A8A8A8",
"v.	c #8A8A8A",
"w.	c #3D3D3D",
"x.	c #242424",
"y.	c #0B0B0B",
"z.	c #656764",
"A.	c #101010",
"B.	c #292929",
"C.	c #858585",
"D.	c #AFAFAF",
"E.	c #232323",
"F.	c #090909",
"G.	c #040404",
"H.	c #070707",
"I.	c #1D1D1D",
"J.	c #474747",
"K.	c #878787",
"L.	c #676767",
"M.	c #2C2C2C",
"N.	c #181818",
"O.	c #010101",
"P.	c #000000",
"Q.	c #0A0A0A",
"R.	c #191919",
"S.	c #212121",
"T.	c #202020",
"U.	c #161616",
"V.	c #060606",
"W.	c #050505",
"                                                                ",
"                                                                ",
"                                                      . + @     ",
"                                                    # $ %       ",
"                                                  & * = -       ",
"                                                ; > , ' )       ",
"                                              ! ~ { ] ^         ",
"                                            ! / ( _ : <         ",
"                                          ! [ } | 1 2 3         ",
"                                        ! 4 5 6 7 8 9           ",
"                                      ! 0 a b c d e f           ",
"                                    g h i j k l m n             ",
"                                  o p q r s t u v w             ",
"                                x y z A B C D E F               ",
"                              x G H I J K L M N O               ",
"                            P Q R S T U V W X Y                 ",
"                            Z `  ...+.@.#.$.%.                  ",
"                            &.*.=.-.;.>.,.'.).                  ",
"                          !.~.{.].` ^./.(._.                    ",
"                          :.<.[.}.|.1.2.3.                      ",
"                        4.5.6.7.8.9.0.a.                        ",
"                        b.c.d.` ^.e.3.                          ",
"                      f.g.=.h.i.j.k.                            ",
"                  l.m.n.o.p.q.g.r.                              ",
"                s.t.u.v.w.x.y.z.                                ",
"              A.B.C.D.1.w.E.F.G.                                ",
"              H.I.J.K.L.M.N.O.P.                                ",
"            P.P.Q.R.S.T.U.V.P.                                  ",
"          P.P.P.P.P.W.W.P.P.P.                                  ",
"        P.P.P.P.P.P.P.P.P.P.                                    ",
"      P.P.P.P.P.P.P.                                            ",
"                                                                "};
