/* XPM */
static char * toolspanel_xpm[] = {
"64 64 2 1",
" 	c None",
".	c #000000",
"...........................................................     ",
"................................................................",
".....         ..................................................",
"..                                              ..           ...",
"...                                             ..           ...",
"...                                             ..           .. ",
"...                                             ..           .. ",
"...                                             ..           .. ",
"...                                             ..           .. ",
"...                                             ..           .. ",
"...                                            ...           .. ",
"............................................................... ",
"............................................................... ",
"..       .......................................       ........ ",
"..                                                          ... ",
"...                                                         ... ",
"...                                 ............            ... ",
"...                                ...............           .. ",
"...                               ....       .....           .. ",
"...                              ...           ...           .. ",
"...                             ...           ...            .. ",
"...                             ...      ........            .. ",
"...                             ...     ........    ..       .. ",
"...                             ...    ....  ..   .....      .. ",
"...                              ..    ...       .......     .. ",
"...                              ...   ...       ... ....    .. ",
"...                               ..   ...       ...  ...    .. ",
"...                               ...   ..        ..   ...   .. ",
"...                              ....   ...       ...   ...  .. ",
"...                              ...     ...      ...   ...  .. ",
"...                             ...       ...      ..    ..  .. ",
"...                            ...         ....   ...    ..  .. ",
"...                           ...           .........    ..  ...",
"...                          ...             .......     ..  ...",
"...                         ...       ...                ..  ...",
"...                        ...       .....               ..  ...",
"...                      ....       ........            ...  ...",
" ..                     ....       ...   ......         ...   ..",
" ..                    ....       ...      ...............    ..",
" ..                  .....        ...        ............     ..",
" ..                 ....         ...             ......       ..",
" ..                ....         ...                           ..",
"...              ....          ....                           ..",
"...             ....          ....                            ..",
"...            ....          ....                             ..",
"...          .....          ....                             ...",
"...         ....           ....                              ...",
"...       .....           ....                               ...",
"...      ....            ....                                ...",
"...     ....            ...                                  ...",
"...     ...            ...                                   ...",
"...    ...           ....                                    .. ",
"...    ..           ....                                     .. ",
"...   ... ...     .....                                      .. ",
"...   .. .. .    ....                                        .. ",
"...   .. ....  .....                                         .. ",
"...   ..     .....                                           .. ",
"...   ...........                                            .. ",
"...   .........                                              .. ",
"...     ....                                                 .. ",
"...                                                          ...",
"......................................................  .... ...",
"................................................................",
" ........    ....           ..........   ......................."};
