/* XPM */
static char * C:\Users\mattp\OneDrive\Documents\Beehive\mdstudio\FormBuilderProj\tool_paintcolhole_xpm[] = {
"32 32 4 1",
" 	c None",
".	c #000000",
"+	c #4B4B4B",
"@	c #313131",
"                                ",
"                                ",
"                                ",
"                                ",
"                                ",
"                                ",
"                                ",
"                                ",
"                                ",
"                                ",
"                                ",
"                                ",
"                                ",
"                                ",
"                                ",
"........                ........",
".........              .........",
"..........            ..........",
"..........            ..........",
"..........            ..........",
".......... + + + + + +..........",
"..........@ @ @ @ @ @ ..........",
".......... . . . . . ...........",
"................................",
"................................",
"................................",
"................................",
"................................",
"................................",
"................................",
"................................",
"................................"};
