/* XPM */
static char * tool_eraser_xpm[] = {
"32 32 153 2",
"  	c None",
". 	c #ED2929",
"+ 	c #EC2828",
"@ 	c #EB2727",
"# 	c #EE2828",
"$ 	c #EF2929",
"% 	c #EE2929",
"& 	c #EF3737",
"* 	c #EF7371",
"= 	c #F07876",
"- 	c #F07877",
"; 	c #F07977",
"> 	c #F07A78",
", 	c #EF7A78",
"' 	c #EF7A79",
") 	c #EF7573",
"! 	c #EF3333",
"~ 	c #EE2E2E",
"{ 	c #EEC5C1",
"] 	c #EDD6D1",
"^ 	c #EFB8B4",
"/ 	c #F09290",
"( 	c #EDD4CF",
"_ 	c #E3B1A8",
": 	c #E1ABA2",
"< 	c #EACBC5",
"[ 	c #EFC3BE",
"} 	c #F04342",
"| 	c #ED2A2A",
"1 	c #EB2929",
"2 	c #EF4847",
"3 	c #EDD3CE",
"4 	c #E7C0B8",
"5 	c #E4B5AD",
"6 	c #F2A5A1",
"7 	c #F37A77",
"8 	c #EFB8B3",
"9 	c #EBCDC8",
"0 	c #E3ABA3",
"a 	c #E2AAA2",
"b 	c #EBCBC4",
"c 	c #EEC6C2",
"d 	c #F49390",
"e 	c #F49491",
"f 	c #EF3C3B",
"g 	c #E72828",
"h 	c #EDD5D0",
"i 	c #E5B5AC",
"j 	c #E2AAA1",
"k 	c #F3A39E",
"l 	c #F5928F",
"m 	c #EE3D3C",
"n 	c #E62626",
"o 	c #EA2929",
"p 	c #EE3635",
"q 	c #EECECA",
"r 	c #E9C4BE",
"s 	c #E3A9A1",
"t 	c #EBCAC4",
"u 	c #EEC5C2",
"v 	c #F5908D",
"w 	c #F5918E",
"x 	c #F47C79",
"y 	c #F0A6A2",
"z 	c #EDD2CC",
"A 	c #E4ACA3",
"B 	c #E3A9A0",
"C 	c #E5B4AB",
"D 	c #F3A09D",
"E 	c #F58F8D",
"F 	c #EF4746",
"G 	c #E52929",
"H 	c #EE2A2A",
"I 	c #EE5C5A",
"J 	c #E7B8B1",
"K 	c #E4A8A0",
"L 	c #EFC5C1",
"M 	c #F68D8B",
"N 	c #F58E8C",
"O 	c #F47F7D",
"P 	c #EE2C2C",
"Q 	c #EEC4BF",
"R 	c #EBC8C3",
"S 	c #E6B3AB",
"T 	c #F39E9B",
"U 	c #F68C8A",
"V 	c #F04C4B",
"W 	c #E72929",
"X 	c #EF2A2A",
"Y 	c #F1908E",
"Z 	c #EDD3CF",
"` 	c #E6AEA6",
" .	c #E4A89F",
"..	c #ECCAC4",
"+.	c #EFC4C1",
"@.	c #F68A88",
"#.	c #F68B89",
"$.	c #F57F7D",
"%.	c #AA1D1D",
"&.	c #EDD0CA",
"*.	c #E9BEB7",
"=.	c #E5A79F",
"-.	c #E7B2AB",
";.	c #F49C98",
">.	c #F68987",
",.	c #F15151",
"'.	c #E82A2A",
").	c #E9C1BA",
"!.	c #E8B6B0",
"~.	c #ECCBC5",
"{.	c #F78786",
"].	c #F78886",
"^.	c #F6817F",
"/.	c #EE2B2B",
"(.	c #B11E1E",
"_.	c #EECEC9",
":.	c #F69492",
"<.	c #F78685",
"[.	c #F25555",
"}.	c #EA2A2A",
"|.	c #FB7575",
"1.	c #FB7676",
"2.	c #FA7777",
"3.	c #FA7878",
"4.	c #FA7979",
"5.	c #FA7A79",
"6.	c #FA7B7A",
"7.	c #F97C7B",
"8.	c #F97D7C",
"9.	c #F97E7D",
"0.	c #F97F7E",
"a.	c #F9807F",
"b.	c #F88180",
"c.	c #F88280",
"d.	c #F88381",
"e.	c #F88482",
"f.	c #F88583",
"g.	c #F78584",
"h.	c #F6807F",
"i.	c #EE2D2D",
"j.	c #BA2020",
"k.	c #FB7474",
"l.	c #F35958",
"m.	c #EC2A2A",
"n.	c #FB7373",
"o.	c #F7817F",
"p.	c #ED2F2E",
"q.	c #C32121",
"r.	c #F75757",
"s.	c #F8807E",
"t.	c #F35251",
"u.	c #E22626",
"v.	c #AE1D1D",
"                                                                ",
"                                                                ",
"                                                                ",
"                                                                ",
"                                                                ",
"                      . + @ @ + + + + # # # # # $               ",
"                  % & * = - - - - ; ; ; > , , ' ) ! $           ",
"                  ~ { ] ] ] ] ] ] ] ] ] ] ] ] ] ] ^ $           ",
"                $ / ( _ : : : : : : : : : : : : < [ } |         ",
"              1 2 3 4 : : : : : : : : : : : : 5 ] 6 7 $         ",
"              $ 8 9 0 a a a a a a a a a a a a b c d e f g       ",
"            % ' h i j j j j j j j j j j j j i ] k l d m n       ",
"          o p q r s s s s s s s s s s s s s t u v w x $         ",
"          % y z A B B B B B B B B B B B B C ] D E v F G         ",
"        H I h J K K K K K K K K K K K K K t L M N O H           ",
"        P Q R K K K K K K K K K K K K K S ] T U M V W           ",
"      X Y Z `  . . . . . . . . . . . . ...+.@.#.$.. %.          ",
"      $ &.*.=.=.=.=.=.=.=.=.=.=.=.=.=.-.] ;.>.@.,.'.            ",
"      $ ] ).!.!.!.!.!.!.!.!.!.!.!.!.!.~.[ {.].^./.(.            ",
"      $ ] ] ] ] ] ] ] ] ] ] ] ] ] ] ] _.:.<.{.[.}.              ",
"      $ |.1.2.3.4.5.6.7.8.9.0.a.b.c.d.e.f.g.h.i.j.              ",
"      $ k.|.1.2.3.4.5.6.7.8.9.0.a.b.c.d.e.f.l.m.                ",
"      $ n.k.|.1.2.3.4.5.6.7.8.9.0.a.b.c.d.o.p.q.                ",
"      % r.n.k.|.1.2.3.4.5.6.7.8.9.0.a.b.s.t..                   ",
"      u.% $ $ $ $ $ $ $ $ $ $ $ $ $ $ $ $ % v.                  ",
"                                                                ",
"                                                                ",
"                                                                ",
"                                                                ",
"                                                                ",
"                                                                ",
"                                                                "};
