/* XPM */
static char * tool_genterrain_beziers_xpm[] = {
"32 32 2 1",
" 	c None",
".	c #000000",
"                                ",
"                                ",
"                                ",
"                                ",
"                                ",
"                                ",
"                                ",
"              ..                ",
"             ....               ",
"            ..  ...             ",
"           ..    ...            ",
"          ..       .            ",
"         ..        ..           ",
"         .. ......  .           ",
"        ..  ......  ..          ",
"        ..  ......   ..         ",
"       ..   ......    ...       ",
"       ..   .........  ....     ",
"      .. ............    ...    ",
"      .. ...............   ...  ",
"     ..  ...............     ...",
"     ..  ..................     ",
"    ..   .......................",
" .... ..........................",
"...   ..........................",
"   .............................",
"................................",
"................................",
"................................",
"................................",
"................................",
"................................"};
